<svg xmlns="http://www.w3.org/2000/svg" viewBox="0 0 512 512">
<path fill="#111827" d="M370 110C330 75 278 56 220 64C126 77 64 154 64 256C64 358 127 435 224 448C273 454 319 441 357 416L330 390C301 407 266 415 229 410C154 401 102 339 102 256C102 173 155 111 231 102C276 97 317 111 349 140L394 112C386 111 378 110 370 110Z"/>
<path fill="#C89B3C" d="M338 284C397 284 444 331 444 390C444 439 406 476 357 476C322 476 294 448 294 414C294 385 317 362 346 362C373 362 394 383 394 410C394 433 377 450 354 450C342 450 332 445 324 438C330 455 345 468 365 468C403 468 434 437 434 399C434 354 398 318 353 318C312 318 279 351 279 392C279 401 281 409 284 417L246 405C250 335 287 284 338 284Z"/>
</svg>